<?xml version="1.0" encoding="windows-1252"?>
<!-- Generator: Adobe Illustrator 19.0.0, SVG Export Plug-In . SVG Version: 6.00 Build 0)  -->
<svg version="1.1" id="Layer_1" xmlns="http://www.w3.org/2000/svg" xmlns:xlink="http://www.w3.org/1999/xlink" x="0px" y="0px" viewBox="0 0 512 512" style="enable-background:new 0 0 512 512;" xml:space="preserve">
<circle style="fill:#FECE00;" cx="251.973" cy="279.276" r="195.255"/>
<path style="fill:#DDB201;" d="M393.651,417.684c0.284-0.194,1.601-1.326,1.887-1.538c0.138-0.136,0.281-0.267,0.416-0.407  c0.391-0.609,2.261-3.106,2.125-2.911c0.727-1.036,1.449-2.074,2.166-3.117c0.734-1.071,1.453-2.152,2.181-3.228l-41.385-41.385  c-6.07,7.755-11.865,15.589-18.864,22.159l39.327,39.327C385.12,423.267,389.444,420.561,393.651,417.684z"/>
<rect x="32.123" y="7.607" style="fill:#FF3502;" width="439.691" height="34.281"/>
<circle style="fill:#FECE00;" cx="251.973" cy="279.276" r="140.211"/>
<g>
	<path style="fill:#DDB201;" d="M251.969,112.072c-92.345,0-167.206,74.86-167.206,167.206s74.86,167.206,167.206,167.206   s167.206-74.86,167.206-167.206S344.314,112.072,251.969,112.072z M251.969,419.577c-77.485,0-140.299-62.814-140.299-140.299   s62.814-140.299,140.299-140.299s140.299,62.814,140.299,140.299S329.454,419.577,251.969,419.577z"/>
	<path style="fill:#DDB201;" d="M361.041,365.099l-37.893-37.893c-0.17-0.17-0.445-0.17-0.616,0l-19.896,19.896   c-0.169,0.17-0.169,0.445,0,0.616l39.54,39.54C349.176,380.688,354.971,372.854,361.041,365.099z"/>
</g>
<circle style="fill:#FECE00;" cx="251.973" cy="279.276" r="59.665"/>
<g>
	<rect x="32.123" y="7.607" style="fill:#CD2A01;" width="48.938" height="34.281"/>
	<rect x="422.876" y="7.607" style="fill:#CD2A01;" width="48.938" height="34.281"/>
</g>
<g>
	<path style="fill:#DDB201;" d="M328.703,276.316l-26.78-26.78c-2.408-2.408-5.055-4.487-7.881-6.235   c9.057,10.462,14.55,24.096,14.55,39.02c0,32.952-26.713,59.665-59.665,59.665c-0.213,0-0.422-0.014-0.634-0.016l7.379,7.379   c8.152,8.153,18.991,12.642,30.52,12.642c11.528,0,22.367-4.489,30.52-12.642l11.991-11.993   c8.153-8.152,12.643-18.991,12.643-30.52C341.344,295.306,336.854,284.467,328.703,276.316z"/>
	<path style="fill:#DDB201;" d="M308.591,282.32c0-14.924-5.492-28.557-14.55-39.02c-6.74-4.169-14.516-6.407-22.639-6.407   c-11.528,0-22.368,4.49-30.519,12.642l-11.994,11.992c-8.152,8.153-12.642,18.991-12.642,30.52s4.49,22.367,12.642,30.52   l19.402,19.402c0.212,0.002,0.421,0.016,0.634,0.016C281.878,341.985,308.591,315.271,308.591,282.32z"/>
</g>
<path style="fill:#C6C5CB;" d="M335.875,327.733l-11.616,11.616c-13.357,13.357-35.011,13.357-48.367,0l-25.941-25.941  c-13.357-13.357-13.357-35.011,0-48.367l11.616-11.616c13.357-13.357,35.011-13.357,48.367,0l25.941,25.941  C349.232,292.722,349.232,314.378,335.875,327.733z"/>
<path style="fill:#FF3502;" d="M496.671,500.144L496.671,500.144c-5.664,5.664-14.848,5.664-20.511,0L320.12,344.106  c-0.17-0.17-0.17-0.445,0-0.616l19.896-19.896c0.17-0.17,0.445-0.17,0.616,0l156.04,156.039  C502.335,485.298,502.335,494.481,496.671,500.144z"/>
<rect x="330.97" y="330.663" transform="matrix(-0.7071 0.7071 -0.7071 -0.7071 835.6329 352.2975)" style="fill:#CD2A01;" width="27.767" height="37.101"/>
<path d="M131.424,223.945l-13.823-6.356c4.786-10.408,10.804-20.276,17.888-29.329l11.981,9.375  C141.114,205.759,135.715,214.611,131.424,223.945z M119.366,279.277c0-13.511,2.022-26.834,6.012-39.601l-14.52-4.538  c-4.45,14.237-6.704,29.088-6.704,44.139c0,25.919,6.807,51.421,19.685,73.749c12.489,21.654,30.403,39.933,51.806,52.862  l7.867-13.022C143.345,368.604,119.366,326.141,119.366,279.277z M251.969,146.674c46.578,0,88.906,23.758,113.23,63.552  l12.982-7.934c-12.971-21.222-31.228-38.976-52.797-51.341c-22.244-12.752-47.63-19.492-73.414-19.492  c-38.692,0-75.279,14.849-103.018,41.812l10.604,10.909C184.438,159.994,217.259,146.674,251.969,146.674z M508.525,489.889  c0,5.905-2.3,11.458-6.476,15.635c-0.001,0-0.001,0-0.001,0C497.872,509.7,492.32,512,486.414,512c-5.905,0-11.458-2.3-15.634-6.476  l-79.148-79.148c-37.853,36.013-87.143,55.767-139.663,55.767c-111.861,0-202.867-91.005-202.867-202.866  c0-56.363,23.113-107.424,60.348-144.224V49.495H24.516V0h454.905v49.495h-84.935v85.558c37.236,36.799,60.348,87.86,60.348,144.224  c0,40.703-11.926,79.706-34.537,113.227l81.75,81.75C506.225,478.43,508.525,483.983,508.525,489.889z M281.068,236.069  c-8.441-5.7-18.497-8.849-29.098-8.849c-28.706,0-52.058,23.352-52.058,52.058c0,28.706,23.352,52.058,52.058,52.058  c1.649,0,3.29-0.077,4.92-0.23l-12.317-12.316c-4.935-4.935-8.484-10.887-10.453-17.383c-1.181-3.898-1.792-7.991-1.792-12.179  c0-2.792,0.272-5.542,0.803-8.22c1.593-8.034,5.521-15.42,11.442-21.343l5.809-5.808l5.808-5.808c0.46-0.46,0.93-0.906,1.408-1.341  c0.213-0.195,0.432-0.379,0.649-0.569c0.251-0.219,0.5-0.439,0.755-0.651c0.322-0.269,0.65-0.528,0.979-0.787  c0.135-0.105,0.27-0.213,0.406-0.317c0.419-0.322,0.844-0.633,1.273-0.937c0.017-0.012,0.035-0.025,0.053-0.038  C267.437,239.363,274.057,236.846,281.068,236.069z M300.076,341.761c7.089,0,13.754-2.756,18.774-7.759l11.657-11.657  c5.017-5.022,7.779-11.695,7.779-18.794c0-7.103-2.767-13.782-7.79-18.805l-25.94-25.941c-1.537-1.537-3.229-2.859-5.041-3.959  l-0.569-0.326c-9.078-5.197-20.287-4.498-28.618,1.426c-0.001,0-0.002,0.001-0.002,0.002c-0.57,0.406-1.125,0.839-1.666,1.292  c-0.062,0.053-0.123,0.107-0.185,0.159c-0.523,0.447-1.035,0.912-1.527,1.405l-11.616,11.616c-4.081,4.081-6.674,9.255-7.501,14.862  c-0.191,1.294-0.288,2.611-0.288,3.942c0,1.332,0.097,2.649,0.288,3.942c0.104,0.705,0.243,1.401,0.403,2.09  c0.089,0.387,0.189,0.773,0.295,1.155c0.112,0.401,0.233,0.797,0.363,1.192c0.139,0.421,0.289,0.838,0.449,1.251  c1.319,3.399,3.337,6.519,5.992,9.174l22.529,22.528l3.413,3.413C286.294,338.994,292.972,341.761,300.076,341.761z M39.73,34.281  h424.478V15.214H39.73V34.281z M124.665,121.453C159.5,93.3,203.797,76.411,251.97,76.411s92.469,16.889,127.304,45.042V49.495  H124.665V121.453z M380.882,415.626l-28.172-28.172c-27.434,25.62-62.912,39.64-100.74,39.64c-8.542,0-17.105-0.735-25.451-2.185  l2.603-14.989c7.488,1.3,15.175,1.96,22.847,1.96c33.752,0,65.417-12.447,89.972-35.196l-23.798-23.798  c-5.568,2.673-11.709,4.086-18.067,4.086c-11.168,0-21.667-4.349-29.563-12.245l-0.619-0.619  c-5.826,1.612-11.833,2.438-17.925,2.438c-37.093,0-67.272-30.178-67.272-67.272s30.178-67.272,67.272-67.272  c22.829,0,43.696,11.297,56.201,30.312c2.552,1.628,4.952,3.537,7.143,5.729l25.941,25.941c7.896,7.897,12.245,18.396,12.245,29.563  c0,6.358-1.415,12.499-4.087,18.067l19.749,19.749c10.104-19.044,15.411-40.317,15.411-62.089c0-11.817-1.553-23.533-4.617-34.822  l14.683-3.985c3.415,12.588,5.147,25.644,5.147,38.806c0,25.827-6.709,51.028-19.431,73.281l28.975,28.975  c19.846-30.44,30.291-65.603,30.291-102.257c0-103.472-84.18-187.652-187.652-187.652c-103.473,0-187.653,84.18-187.653,187.652  s84.18,187.652,187.653,187.652C300.417,466.929,345.905,448.766,380.882,415.626z M493.311,489.889  c0-1.842-0.717-3.574-2.019-4.877L340.324,334.044l-4.878,4.877l-4.877,4.878l71.803,71.803l0,0l79.165,79.165  c1.302,1.302,3.035,2.02,4.877,2.02c1.842,0,3.573-0.718,4.877-2.02h0.001C492.594,493.462,493.311,491.731,493.311,489.889z   M28.635,271.67H3.475v15.214h25.16V271.67z M500.918,271.67h-25.159v15.214h25.16V271.67H500.918z M81.703,98.025l-10.757,10.757  l17.79,17.791l10.757-10.757L81.703,98.025z M415.658,126.573l17.79-17.791l-10.757-10.757l-17.79,17.791L415.658,126.573z   M70.946,449.771l10.757,10.757l17.79-17.791L88.736,431.98L70.946,449.771z M48.25,187.39l-23.277-9.549l-5.774,14.076  l23.277,9.549L48.25,187.39z M456.144,371.163l23.277,9.549l5.774-14.076l-23.277-9.549L456.144,371.163z M455.513,186.002  l5.87,14.036l23.212-9.707l-5.87-14.036L455.513,186.002z M19.799,368.224l5.87,14.036l23.212-9.707l-5.87-14.036L19.799,368.224z"/>
<g>
</g>
<g>
</g>
<g>
</g>
<g>
</g>
<g>
</g>
<g>
</g>
<g>
</g>
<g>
</g>
<g>
</g>
<g>
</g>
<g>
</g>
<g>
</g>
<g>
</g>
<g>
</g>
<g>
</g>
</svg>