<svg id="Chinese_Drum" height="512" viewBox="0 0 512 512" width="512" xmlns="http://www.w3.org/2000/svg" data-name="Chinese Drum"><g id="Filled"><path d="m440 68h32v404h-32z" fill="#ff5252"/><path d="m40 155.282a114.26 114.26 0 0 1 32 44.718v-132h-32z" fill="#e53935"/><path d="m440 155.282a114.26 114.26 0 0 1 32 44.718v-132h-32z" fill="#e53935"/><path d="m502.35 42.559c1.008-.556 2.124.557 1.439 1.439-76.171 98.127-128.283 28.002-247.789 28.002s-171.618 70.125-247.789-28c-.685-.882.431-1.995 1.439-1.439 91.779 50.667 127.179-34.561 246.35-34.561s154.571 85.228 246.35 34.559z" fill="#ff5252"/><rect fill="#d8c6c5" height="32" rx="16" width="96" x="8" y="472"/><path d="m88 472h-11.382a81.8 81.8 0 0 1 -34.93 32h46.312a16 16 0 0 0 16-16 16 16 0 0 0 -16-16z" fill="#c9acab"/><rect fill="#d8c6c5" height="32" rx="16" width="96" x="408" y="472"/><path d="m488 472h-11.382a81.8 81.8 0 0 1 -34.93 32h46.312a16 16 0 0 0 16-16 16 16 0 0 0 -16-16z" fill="#c9acab"/><path d="m40 68h32v404h-32z" fill="#ff5252"/><circle cx="256" cy="256" fill="#fdd835" r="120"/><path d="m343.315 173.692a127.95 127.95 0 0 1 -190.854 142.99 120 120 0 1 0 190.854-142.99z" fill="#fbc02d"/><circle cx="256" cy="256" fill="#fbc02d" r="32"/><path d="m273.038 228.918a39.979 39.979 0 0 1 -32.9 54.868 32 32 0 0 0 32.9-54.868z" fill="#f9a825"/><circle cx="244" cy="244" fill="#fef2d5" r="12"/><circle cx="24" cy="484" fill="#eee6e6" r="12"/><circle cx="424" cy="484" fill="#eee6e6" r="12"/><g fill="#ffccbc"><circle cx="216" cy="36" r="16"/><circle cx="260" cy="48" r="12"/></g></g><g id="Outline"><path d="m168.63 32.64a7.931 7.931 0 0 0 2.84-.52 8 8 0 0 0 -2.84-15.48 8 8 0 0 0 -7.3 4.719 7.973 7.973 0 0 0 -.181 6.12 8.053 8.053 0 0 0 7.481 5.161z"/><path d="m488 464h-8v-383.432c10.065-8.2 20.024-18.682 30.109-31.669l.061-.08a8.91 8.91 0 0 0 -1.04-11.96 9.178 9.178 0 0 0 -6.22-2.449h-.04a9.129 9.129 0 0 0 -4.41 1.159c-18.65 10.261-35.17 15.051-52.01 15.071-11.65 0-23.721-2.37-37.99-7.451-9.641-3.389-19.59-7.819-30.12-12.5-15.49-6.889-33.04-14.7-53-20.609a240.6 240.6 0 0 0 -69.32-10.08h-.05a238.761 238.761 0 0 0 -58.821 7.2 8 8 0 1 0 3.891 15.52 223.216 223.216 0 0 1 54.96-6.72c44.91.029 76.64 12.2 105.29 24.66 3.529 1.529 7.06 3.1 10.46 4.61 10.74 4.77 20.89 9.27 31.34 13 16.03 5.709 29.809 8.37 43.34 8.37h.13a107.182 107.182 0 0 0 30.25-4.51 109.981 109.981 0 0 1 -21.68 16.16c-12.26 6.779-24.83 9.95-39.561 9.98h-.21c-17.33 0-36.469-4.57-58.63-9.871-2.79-.67-5.679-1.359-8.6-2.049-25.429-5.98-55.619-12.35-92.109-12.35h-.041c-36.489 0-66.679 6.37-92.109 12.35-2.92.69-5.82 1.379-8.62 2.049-22.15 5.3-41.29 9.871-58.61 9.871h-.22c-14.72-.03-27.29-3.2-39.55-9.98a109.957 109.957 0 0 1 -21.681-16.16 105.32 105.32 0 0 0 30.25 4.51h.13c12.481 0 24.96-2.22 39.281-6.98 11.73-3.9 23.049-8.92 35.04-14.23l2.48-1.1a8 8 0 0 0 -3.24-15.32 7.893 7.893 0 0 0 -3.24.69l-1.58.7c-12.081 5.361-23.5 10.42-34.51 14.08-12.66 4.2-23.54 6.161-34.25 6.161-16.85-.02-33.39-4.81-52.03-15.08a9.138 9.138 0 0 0 -4.38-1.15h-.06a9.137 9.137 0 0 0 -6.221 2.46 8.912 8.912 0 0 0 -.959 12.039c15.74 20.279 31.169 34.46 47.2 43.369a94.776 94.776 0 0 0 14.9 6.71v365.011h-16v-190a8 8 0 0 0 -16 0v190h-8a24 24 0 0 0 0 48h64a24 24 0 0 0 0-48h-8v-360.985a103.131 103.131 0 0 0 16.24 1.255h.18c19.559-.03 39.51-4.81 60.63-9.86 2.11-.5 4.268-1.017 6.443-1.535l26.691 53.382a128 128 0 1 0 131.632 0l26.69-53.381c2.175.517 4.335 1.033 6.444 1.534 21.119 5.06 41.07 9.83 60.619 9.86h.191a94.336 94.336 0 0 0 47.14-11.991c.368-.2.734-.426 1.1-.636v372.357h-16v-338.039a8 8 0 0 0 -16 0v290.039h-328a8 8 0 0 0 0 16h328v32h-8a24 24 0 0 0 0 48h64a24 24 0 0 0 0-48zm-392 24a8.009 8.009 0 0 1 -8 8h-64a8 8 0 0 1 0-16h64a8.009 8.009 0 0 1 8 8zm272-232a112 112 0 1 1 -112-112 112.127 112.127 0 0 1 112 112zm-112-128a127.26 127.26 0 0 0 -51.615 10.881l-24.849-49.7c21.898-4.814 47.144-9.181 76.464-9.181s54.566 4.367 76.464 9.184l-24.849 49.7a127.26 127.26 0 0 0 -51.615-10.884zm232 368h-64a8 8 0 0 1 0-16h64a8 8 0 0 1 0 16z"/><path d="m211.9 187.83a8 8 0 1 0 -6.929-3.98 8.014 8.014 0 0 0 6.929 3.98z"/><path d="m170.569 278.67a8 8 0 0 0 2.741 15.51 7.987 7.987 0 0 0 7.52-10.741 7.991 7.991 0 0 0 -10.261-4.769z"/><path d="m216.05 325.33a8 8 0 1 0 -8.01 13.85h.01a7.929 7.929 0 0 0 3.99 1.08 8 8 0 0 0 4.01-14.93z"/><path d="m170.52 233.51a8.14 8.14 0 0 0 2.73.48 8 8 0 1 0 -2.73-.48z"/><path d="m344 264a8 8 0 0 0 8-8v-.2a8 8 0 1 0 -16 .03v.19a8 8 0 0 0 8 7.98z"/><path d="m269.779 177.18a8 8 0 1 0 -6.519-9.25 8.03 8.03 0 0 0 6.519 9.25z"/><path d="m323.31 207.31a8 8 0 1 0 -6.121-2.84 7.949 7.949 0 0 0 6.121 2.84z"/><path d="m269.939 334.79a8 8 0 0 0 1.38 15.88 8.255 8.255 0 0 0 1.391-.12 8 8 0 0 0 -2.771-15.76z"/><path d="m328.569 306.42a8 8 0 1 0 .991 11.269 8 8 0 0 0 -.991-11.269z"/><path d="m216 256a40 40 0 1 0 40-40 40.045 40.045 0 0 0 -40 40zm64 0a24 24 0 1 1 -24-24 24.028 24.028 0 0 1 24 24z"/><circle cx="40" cy="242" r="8"/><path d="m40 218a8.011 8.011 0 0 0 8-8v-95.25a8 8 0 0 0 -16 0v95.25a8.011 8.011 0 0 0 8 8z"/></g></svg>